<svg xmlns:xlink="http://www.w3.org/1999/xlink" height="100" viewBox="0 0 256 256" width="100" xmlns="http://www.w3.org/2000/svg"><title>Sketch</title><g clip-rule="evenodd" fill-rule="evenodd"><path d="m81.0252 57.9195 46.5328-4.9195 46.532 4.9195 36.026 48.3605-82.558 96.138-82.558-96.138z" fill="#FDB300"></path><path d="m78.4401 106.28 49.1179 96.138-82.558-96.138z" fill="#EA6C00"></path><path d="m176.676 106.28-49.118 96.138 82.558-96.138z" fill="#EA6C00"></path><path d="m78.4401 106.28h98.2359l-49.118 96.138z" fill="#FDAD00"></path><path d="m127.558 53-46.5329 4.9194-2.585 48.3606z" fill="#FDD231"></path><path d="m127.558 53 46.532 4.9194 2.585 48.3606z" fill="#FDD231"></path><path d="m210.116 106.28-36.026-48.3606 2.586 48.3606z" fill="#FDAD00"></path><path d="m45 106.28 36.0251-48.3606-2.585 48.3606z" fill="#FDAD00"></path><path d="m127.558 53-49.1179 53.28h98.2359z" fill="#FEEEB7"></path></g></svg>